<svg xmlns="http://www.w3.org/2000/svg" viewBox="0 0 44.5 47.34" id="Delete">
  <rect width="44.5" height="6.7" y="5.02" fill="#f5172a" rx="1.96" class="color231f20 svgShape"></rect>
  <path fill="#f5172a" d="M18.93 0h6.63a2.51 2.51 0 0 1 2.51 2.51V5H16.42V2.51A2.51 2.51 0 0 1 18.93 0ZM4.74 14.56v30.16a2.62 2.62 0 0 0 2.62 2.62h29.79a2.62 2.62 0 0 0 2.61-2.62V14.56Zm10.28 22.91a1.47 1.47 0 1 1-2.93 0V24.42a1.47 1.47 0 1 1 2.93 0Zm8.7 3a1.47 1.47 0 1 1-2.93 0V21.42a1.47 1.47 0 1 1 2.93 0Zm8.67-3a1.47 1.47 0 1 1-2.93 0V24.42a1.47 1.47 0 1 1 2.93 0Z" class="color231f20 svgShape"></path>
</svg>
